PathFileType	4	(X/Y/Z)	./resultDataOpenSim/trcMotMarkerGrf/sub09/qtm-04-01.trc
DataRate	CameraRate	NumFrames	NumMarkers	Units	OrigDataRate	OrigDataStartFrame	OrigNumFrames
250.000000	250.000000	13	24	m	250.000000	127	506
Frame#	Time	L.Toe.Tip			R.Toe.Tip			L.Ankle.Lat			R.Ankle.Lat			L.Ankle.Med			R.Ankle.Med			L.Heel			R.Heel			L.Knee.Lat			R.Knee.Lat			L.Knee.Med			R.Knee.Med			L.Thigh.Upper			R.Thigh.Upper			L.ASIS			R.ASIS			V.Sacral			L.Acromium			R.Acromium			C7			L.Elbow			R.Elbow			L.Wrist.Lat			R.Wrist.Lat
		X1	Y1	Z1	X2	Y2	Z2	X3	Y3	Z3	X4	Y4	Z4	X5	Y5	Z5	X6	Y6	Z6	X7	Y7	Z7	X8	Y8	Z8	X9	Y9	Z9	X10	Y10	Z10	X11	Y11	Z11	X12	Y12	Z12	X13	Y13	Z13	X14	Y14	Z14	X15	Y15	Z15	X16	Y16	Z16	X17	Y17	Z17	X18	Y18	Z18	X19	Y19	Z19	X20	Y20	Z20	X21	Y21	Z21	X22	Y22	Z22	X23	Y23	Z23	X24	Y24	Z24

127	0.504	-0.10167001	0.11345817	0.01825134	-0.6238402	0.038928872	0.13013508	-0.25318927	0.099733261	-0.016966987	-0.76998677	0.05730966	0.1533155	-0.23412683	0.12470447	0.077093685	-0.75358028	0.091507242	0.060736018	-0.30561685	0.042508639	0.033881545	-0.83796039	0.036190282	0.09957014	-0.32741599	0.51081406	-0.056203127	-0.59443415	0.48016445	0.21542556	-0.32909424	0.50769841	0.067983637	-0.61230141	0.4737777	0.087401666	-0.53198803	0.88008335	-0.09990213	-0.57765676	0.88771432	0.26859783	-0.46670706	0.96542628	-0.032222584	-0.47557429	0.96859847	0.20727927	-0.634551	1.0247408	0.0723953	-0.47763814	1.4151312	-0.087981174	-0.49757906	1.4285676	0.24187879	-0.55644504	1.4728446	0.075202291	-0.63477312	1.0838547	-0.14143584	-0.60091184	1.0754864	0.33979576	-0.52950765	0.84718141	-0.19084417	-0.39789851	0.88534164	0.32421149
128	0.508	-0.086899125	0.11606993	0.019352067	-0.62387933	0.03884868	0.13015946	-0.23804291	0.099282107	-0.016570852	-0.76996552	0.057369627	0.15328217	-0.21993964	0.12471592	0.077685497	-0.75342518	0.091473345	0.060675722	-0.28937865	0.04098489	0.034063666	-0.83794829	0.036338902	0.099438327	-0.32144904	0.50848338	-0.056009655	-0.5919112	0.47929409	0.21544168	-0.32339948	0.50509915	0.068362371	-0.60986929	0.47308109	0.087116094	-0.52544897	0.8781941	-0.099672868	-0.57208697	0.88673703	0.26859517	-0.46007482	0.9637476	-0.031940612	-0.46943194	0.96728689	0.20763801	-0.62799651	1.0232475	0.071978789	-0.47179906	1.4135978	-0.088007176	-0.49191612	1.4271558	0.24188195	-0.55064388	1.4713707	0.075127139	-0.62954156	1.0827811	-0.14161074	-0.59441564	1.073776	0.3398679	-0.52552287	0.84568615	-0.19156423	-0.39103864	0.88422563	0.32348941
129	0.512	-0.072568291	0.11867166	0.020327336	-0.62390718	0.038786838	0.13021622	-0.22321865	0.098964822	-0.016187279	-0.76995314	0.057431118	0.15325823	-0.20608012	0.12477321	0.078271501	-0.75326921	0.091463801	0.060630475	-0.27353709	0.039600959	0.034176697	-0.83793916	0.036527644	0.099313962	-0.31551262	0.506119	-0.055876411	-0.58939496	0.47839139	0.21546552	-0.31765841	0.50244433	0.068816909	-0.60717358	0.47238756	0.086990901	-0.5189068	0.87622783	-0.099441931	-0.56647359	0.88564936	0.26860908	-0.4534217	0.96203849	-0.031683268	-0.46321863	0.96594879	0.20796333	-0.62151179	1.0216039	0.071527371	-0.4659495	1.4120081	-0.088052488	-0.48623543	1.4256862	0.24187614	-0.54481267	1.4698382	0.075026392	-0.62419856	1.0816129	-0.14187303	-0.58792642	1.0720149	0.33992416	-0.52148243	0.84413516	-0.19227344	-0.38425064	0.8830119	0.32276306
130	0.516	-0.058679752	0.12122293	0.021194584	-0.62393275	0.038736482	0.13028444	-0.20877814	0.098749229	-0.015845996	-0.76994774	0.057509068	0.15323725	-0.19248073	0.12487936	0.078722995	-0.75313077	0.091465582	0.060577194	-0.2581076	0.038330313	0.034210269	-0.83793241	0.036756442	0.099195743	-0.30960504	0.50375876	-0.055807731	-0.58683169	0.47745946	0.21547606	-0.31180235	0.49978433	0.069387305	-0.60428046	0.47169159	0.086948145	-0.51232338	0.87420612	-0.099201303	-0.56074448	0.8844235	0.2685951	-0.44674273	0.96030776	-0.031453319	-0.4569524	0.96459069	0.20825696	-0.6150518	1.0198196	0.071040735	-0.4600906	1.4103661	-0.08810661	-0.48053352	1.4241661	0.24186339	-0.53896928	1.4682474	0.074910443	-0.61877245	1.0803574	-0.14218175	-0.58143863	1.0702034	0.33996444	-0.51738376	0.84252401	-0.19297307	-0.37754226	0.88171618	0.32203319
131	0.52	-0.04523028	0.12367487	0.021964555	-0.62395735	0.038689857	0.13035022	-0.19478032	0.098581336	-0.015584955	-0.76994185	0.05760709	0.15321226	-0.17917415	0.12500983	0.078972798	-0.75301864	0.091462347	0.060494836	-0.24309134	0.037137923	0.034142946	-0.83792969	0.037014269	0.099081082	-0.30368069	0.50142668	-0.055769222	-0.58418862	0.47651589	0.21548179	-0.30581598	0.49713913	0.070082876	-0.60130363	0.47095202	0.086896462	-0.50566659	0.87213967	-0.098952896	-0.55491238	0.88305584	0.26856788	-0.44003539	0.95855406	-0.031255454	-0.45066054	0.96320567	0.20852556	-0.60857478	1.0179104	0.070529467	-0.45422545	1.4086767	-0.088164014	-0.47482299	1.4225947	0.24184459	-0.53312419	1.4666029	0.074789429	-0.61328471	1.0790291	-0.14250442	-0.57494836	1.0683392	0.33999149	-0.51322411	0.84085109	-0.1936702	-0.37087546	0.88035653	0.32130802
132	0.524	-0.032215984	0.12597997	0.022654117	-0.62397755	0.038640053	0.1304099	-0.18123832	0.09842021	-0.015423751	-0.7699236	0.057724594	0.15317812	-0.16622244	0.12512049	0.079072653	-0.7529132	0.091457184	0.060389142	-0.22849153	0.035987749	0.033953419	-0.83792944	0.037293815	0.098963193	-0.29769098	0.49911877	-0.055725361	-0.58146246	0.4755724	0.21550694	-0.29978264	0.49448932	0.070844805	-0.5983122	0.47012796	0.086799958	-0.49893219	0.87003087	-0.098703819	-0.5491008	0.88154674	0.26863859	-0.43329764	0.9567734	-0.031086196	-0.44435936	0.96178132	0.20877732	-0.60206365	1.0159002	0.07002103	-0.44835905	1.4069436	-0.088230693	-0.46911513	1.4209677	0.24181503	-0.52727474	1.4649185	0.074669863	-0.60774367	1.0776382	-0.14283019	-0.56845333	1.0664233	0.34000597	-0.50900314	0.83912731	-0.19437279	-0.36417296	0.87894869	0.32060625
133	0.528	-0.01963339	0.12809803	0.023292857	-0.62399091	0.038584131	0.13046597	-0.16812967	0.098250199	-0.015353811	-0.76988264	0.0578638	0.15312877	-0.15370246	0.12514671	0.07914904	-0.75278196	0.09147222	0.060285074	-0.21434943	0.03486983	0.03364281	-0.83792263	0.037603784	0.098832847	-0.29161632	0.49681996	-0.055662186	-0.57866335	0.47461996	0.21555777	-0.29384076	0.49181042	0.071575462	-0.59531012	0.46921095	0.086679326	-0.49213521	0.86787745	-0.098453653	-0.54352498	0.87990847	0.26899404	-0.42652567	0.95496565	-0.030930254	-0.43804279	0.96030926	0.20901671	-0.59552343	1.0138191	0.069548797	-0.442492	1.4051673	-0.088313198	-0.46339933	1.4192813	0.24176742	-0.52141258	1.4632043	0.074556804	-0.60215172	1.0761866	-0.14315401	-0.56195046	1.0644607	0.34000499	-0.50471679	0.83737067	-0.19508488	-0.357384	0.87750101	0.31994108
134	0.532	-0.0074777384	0.12999526	0.023915733	-0.62399718	0.038524857	0.1305204	-0.15544226	0.098061077	-0.015347479	-0.76981751	0.058029399	0.15305606	-0.14169791	0.12501749	0.079265682	-0.75261833	0.09152553	0.060186775	-0.20073574	0.033803925	0.0332367	-0.83789435	0.037961437	0.098675997	-0.28546666	0.49453073	-0.05557106	-0.57578717	0.473636	0.21561296	-0.28808182	0.4891005	0.072209716	-0.59224703	0.46823631	0.086587916	-0.48529687	0.86567779	-0.098192477	-0.53834188	0.87817624	0.26975412	-0.41971727	0.95313088	-0.030776199	-0.43169335	0.95879032	0.20924232	-0.58897037	1.0116935	0.069140088	-0.43661838	1.4033498	-0.088408977	-0.457654	1.4175404	0.24170025	-0.51553523	1.4614554	0.074448467	-0.59650913	1.0746747	-0.14347091	-0.55543831	1.0624595	0.33998711	-0.50034858	0.83558879	-0.19580119	-0.35052511	0.87601376	0.31930863
135	0.536	0.0042582993	0.13164058	0.024553217	-0.62399724	0.038467177	0.13057236	-0.14319184	0.097832138	-0.015370144	-0.76973652	0.058225691	0.15295475	-0.13024377	0.12469099	0.079393439	-0.75244329	0.091620253	0.060067372	-0.18769409	0.032798945	0.032771486	-0.83782606	0.038377096	0.098466037	-0.27926228	0.49227018	-0.05544086	-0.57281179	0.47260963	0.21564887	-0.28249244	0.48637051	0.072745844	-0.58905104	0.4672566	0.086571157	-0.4784181	0.8634348	-0.097922434	-0.53342069	0.87640493	0.27075704	-0.41287721	0.95126496	-0.03062556	-0.42530028	0.95723163	0.20945321	-0.58242395	1.009542	0.068812761	-0.43073189	1.4014977	-0.08851191	-0.45186589	1.4157596	0.24161794	-0.50964964	1.4596577	0.074332858	-0.59081498	1.0731045	-0.14377785	-0.54891587	1.0604262	0.33995274	-0.4958773	0.83376729	-0.19650264	-0.34364915	0.87448227	0.31869883
136	0.54	0.015582261	0.1330047	0.02522406	-0.62399156	0.038413513	0.13061939	-0.13139321	0.097535199	-0.015389506	-0.76964758	0.058455825	0.15283045	-0.11929319	0.12417809	0.079492828	-0.75225588	0.091754604	0.059908664	-0.17522255	0.031825007	0.032290102	-0.83770018	0.038859669	0.098173412	-0.27300881	0.49005932	-0.055281569	-0.56971721	0.47154993	0.21566309	-0.27699147	0.48362923	0.073209396	-0.58569883	0.46629266	0.086641006	-0.47147813	0.86115204	-0.09765882	-0.52837589	0.87464725	0.27160256	-0.40601613	0.94936335	-0.030484376	-0.418867	0.95563773	0.20965454	-0.57589802	1.0073774	0.068571119	-0.42483282	1.3996161	-0.0886236	-0.44603996	1.4139497	0.24152651	-0.50376496	1.4578022	0.074198796	-0.5850691	1.0714778	-0.14407417	-0.54238139	1.0583646	0.33990167	-0.49129902	0.83188333	-0.19716948	-0.33679695	0.87289931	0.31810549
137	0.544	0.026493441	0.13406364	0.025924257	-0.62397767	0.038362455	0.1306583	-0.12004713	0.097137913	-0.015378272	-0.76954989	0.05872206	0.15269999	-0.10875957	0.1235281	0.079560272	-0.75201162	0.091927975	0.059726447	-0.16330737	0.03082796	0.031848859	-0.83751828	0.039435271	0.097806643	-0.26669217	0.48790052	-0.05512226	-0.566497	0.47046239	0.21566651	-0.27149292	0.48088446	0.073609551	-0.58223536	0.46531847	0.086770933	-0.46446486	0.85882975	-0.097408508	-0.52293223	0.872918	0.2720241	-0.39914429	0.94742416	-0.030357088	-0.41240621	0.95400192	0.20985376	-0.56939585	1.005208	0.06840691	-0.41892777	1.3976993	-0.088753944	-0.44019407	1.4121093	0.24143059	-0.4978825	1.4558916	0.074047639	-0.57927396	1.0697957	-0.14436083	-0.53583649	1.0562769	0.33983355	-0.48663568	0.82993213	-0.19780398	-0.32997705	0.87126082	0.31752448
138	0.548	0.036974657	0.13480411	0.026615603	-0.62395077	0.038310657	0.13068611	-0.10916404	0.096600521	-0.015313953	-0.7694377	0.059023981	0.15257669	-0.098588719	0.1227868	0.079617188	-0.75167003	0.092136898	0.059546716	-0.15193993	0.029755515	0.031511972	-0.83732641	0.040128808	0.097446898	-0.26029952	0.4857657	-0.054971277	-0.56316041	0.46933564	0.21566943	-0.2659263	0.47814711	0.073935308	-0.57871038	0.46429517	0.086903216	-0.45738807	0.8564676	-0.097167815	-0.51712771	0.87118722	0.2720826	-0.39226386	0.94544709	-0.030246276	-0.405929	0.95230617	0.21005339	-0.56291532	1.0030335	0.06831319	-0.413023	1.3957386	-0.088908197	-0.43433768	1.4102315	0.24132681	-0.49199496	1.4539346	0.073890814	-0.5734343	1.0680592	-0.14463829	-0.52928586	1.0541635	0.33974806	-0.48191548	0.82792876	-0.1984303	-0.32317391	0.86956841	0.31695306
139	0.552	0.046994285	0.13522457	0.027233916	-0.62390807	0.03825531	0.13070183	-0.098778054	0.095875866	-0.015180372	-0.76930457	0.059357967	0.15245398	-0.088784521	0.12196454	0.079691572	-0.7512381	0.092374626	0.059379623	-0.1411064	0.028571403	0.031330414	-0.83720322	0.040913001	0.09720174	-0.25383989	0.48361078	-0.054807023	-0.55971746	0.46816053	0.21568355	-0.26023427	0.47542906	0.074172447	-0.57514249	0.46320638	0.086988956	-0.45027018	0.85407176	-0.096934461	-0.51114299	0.86941363	0.27197845	-0.38536592	0.94343388	-0.030150527	-0.39943875	0.95053326	0.21025082	-0.55645721	1.0008293	0.06829586	-0.40711778	1.3937353	-0.089078759	-0.42846234	1.4083113	0.24120488	-0.48609674	1.4519338	0.073737268	-0.56755507	1.0662703	-0.14490559	-0.52273393	1.0520236	0.33964474	-0.4771502	0.82588753	-0.19907199	-0.31636838	0.86782386	0.31639207
